/* XPM */
static char *c1f700985e1f438e8180e4902745c5646EvK9KccffRY4C5W[] = {
/* columns rows colors chars-per-pixel */
"64 64 117 2 ",
"   c #181328",
".  c #161126",
"X  c #221E32",
"o  c #2A273C",
"O  c #171227",
"+  c #19152B",
"@  c #1C182F",
"#  c #191429",
"$  c #140F25",
"%  c #242034",
"&  c #110C21",
"*  c #454559",
"=  c #6B6E81",
"-  c #151025",
";  c #171126",
":  c #1F1D34",
">  c #292D49",
",  c #181429",
"<  c #181428",
"1  c #1F1F36",
"2  c #1B172E",
"3  c #181227",
"4  c #150F24",
"5  c #171226",
"6  c #181327",
"7  c #161025",
"8  c #1B162C",
"9  c #1F1D33",
"0  c #1C192F",
"q  c #19152A",
"w  c #252338",
"e  c #1D192E",
"r  c #232239",
"t  c #3B415C",
"y  c #1B172D",
"u  c #1A152B",
"i  c #2A2D49",
"p  c #1E1C33",
"a  c #161125",
"s  c #1A162B",
"d  c #555B73",
"f  c #2F2E45",
"g  c #140E23",
"h  c #191328",
"j  c #1D1A30",
"k  c #3B405B",
"l  c #211F35",
"z  c #1A162C",
"x  c #151127",
"c  c #241F33",
"v  c #1F1B30",
"b  c #242237",
"n  c #181228",
"m  c #181329",
"M  c #1F1F37",
"N  c #1A172C",
"B  c #1F1E35",
"V  c #19162D",
"C  c #241F32",
"Z  c #130E22",
"A  c #37384E",
"S  c #51566D",
"D  c #1B182E",
"F  c #242137",
"G  c #1C182E",
"H  c #1A172D",
"J  c #292D48",
"K  c #1D1A31",
"L  c #2A2C48",
"P  c #201F37",
"I  c #150F23",
"U  c #212039",
"Y  c #282B46",
"T  c #1B182F",
"R  c #19142A",
"E  c #1C182D",
"W  c #393F5A",
"Q  c #292A42",
"!  c #161024",
"~  c #191428",
"^  c #19162B",
"/  c #1E1E34",
"(  c #1C1A31",
")  c #1F2036",
"_  c #1F2037",
"`  c #1B192F",
"'  c #292C48",
"]  c #1E1B32",
"[  c #130E23",
"{  c #28253A",
"}  c #323751",
"|  c #393A52",
" . c #29253A",
".. c #1D192F",
"X. c #1D1B31",
"o. c #120D22",
"O. c #140F24",
"+. c #171228",
"@. c #1A152A",
"#. c #201D34",
"$. c #3A405B",
"%. c #282941",
"&. c #171328",
"*. c #1F1C33",
"=. c #3B415B",
"-. c #1E1E35",
";. c #212038",
":. c #171125",
">. c #1F1F35",
",. c #19172D",
"<. c #150F25",
"1. c #323651",
"2. c #1E1B31",
"3. c #151024",
"4. c #25253C",
"5. c #414A65",
"6. c white",
/* pixels */
"    . X o O               + @                                                             + #                             # $ % ",
"  # & * = -             ; : > ,                                                         < 1 2 3                           # $ % ",
"    . X o O               + @                                                             + #                             # $ % ",
"      . 4                 3 3       O 5                                       O 6     7 O                                 # $ % ",
"                                  3 8 9 #                                   , 0 q 3 < w e O                               # $ % ",
"                                , 7 r t y O                               6 u i p a s d f g #                             # $ % ",
"                                  3 8 9 #                                   , 0 q 3 < w e O                               # $ % ",
"                                    O 5                                       O 6     7 O                                 # $ % ",
"                                                                                                                          # $ % ",
"                                                                                            3 3                           # $ % ",
"                                                                    ; O                     @ +                           # $ % ",
"                                                O ;               q 9 s 6                 , > : ;                         h $ % ",
"  O 7                                         6 s 9 q           5 j k l . z #               @ +                           s x c ",
"O v b n                                     m a l k j 5           < 9 u , M N 3             3 3         3 3             6 B V C ",
"Z A S 7 3                                     6 s 9 q           # D   O , + #                           0 s 6             s x c ",
"O v F u G                                       O ;           3 H J K 5                               3 L P ;             h $ % ",
"  O I U Y O                                                     # T R                                   0 s 6             # $ % ",
"      s G                                                         O                                     3 3               # $ % ",
"      3 3                                                                                                                 # $ % ",
"                                                                                                                          # $ % ",
"                                                                                                          O O             # $ % ",
"                                                                                                          9 E O           # $ % ",
"                                                                                                        O W Q ! ,     + R ~ $ % ",
"                                                                        m ^ #                             9 E O     6 / (   - % ",
"                                                                        R M N 3                           O O         + R ~ $ % ",
"                                      # ^ m                             m ^ #                 ^ #                         # $ % ",
"                                    3 N M R                                                   ) D O s #                   # $ % ",
"                                      # ^ m                                   + #             ^ # 6 _ ` O                 # $ % ",
"                                                                            # M N 3                 ^ #                   # $ % ",
"                                                                              + #                                         # $ % ",
"                      # +       # +                                                                                       # $ % ",
"                    3 2 1 <   3 N M #                               O       O 6                                           # $ % ",
"                      # +       # +                               # T R 6 , 0 q                                           # $ % ",
"                                                                3 H ' K ; u i ] ;                                         # $ % ",
"                                                                  # T R 6 , 0 q                                           # [ C ",
"                                                                    O       O 6           7 O                             h D { ",
"                                                                                          w e O                           O } | ",
"                                                                                      O s d f g #                       + q D  .",
"                                                                                          w ..;                       6 / X.o.c ",
"                                                                                          7 O s #                       + + O.% ",
"                                                                                              ) D O     5 O               # $ % ",
"                                # u +.5                   3 ; 3                               ^ #       9 G 3             # $ % ",
"                              3 H 1 y 9 #                 @.#.@.                        7 O           O $.%.! ,           # $ % ",
"                                # &.r t y O             ; *.=.*.;                       w e O           9 G 3             # $ % ",
"    # +                           3 8 9 #                 @.#.@.                    O s d f g #         5 O               # $ % ",
"  O ` -.                            O 5                   3 ; 3       ; O               w e O                             # $ % ",
"    # +                                                             q 9 s 6             7 O                               # $ % ",
"                                                                  5 j k l a m                               3 3           # $ % ",
"                                                                    q 9 s 6                                 G s 6         # $ % ",
"                                                          3 ; 3       ; O                                 O Y ;.:.      + + O.% ",
"                                                          @.#.@.                                            G s 6     6 / X.O.% ",
"                                                        ; *.=.*.;                                           3 3         + + O.% ",
"                      O 7                                 @.#.@.                                                          # $ % ",
"                    O e w                                 3 ; 3               + #                                         # $ % ",
"                  # g f d s O                                               # M N 3                             + #       h $ % ",
"                    O e w                                                     + #                               -.` O     s x c ",
"                      O 7                                                                                       + #     3 >.,.C ",
"                                                                                                                          s <.C ",
"                                                                                                                          h D { ",
"                                                                                                                          O 1.| ",
"                                                                                                                          h D { ",
"                                O O                                                                                       # [ C ",
"                              6 s 2.,                                                                                     # $ % ",
"                            , 3.4.5.G O                                                                                   # $ % "
};
