/* XPM */
static char *_33a95ed99cf4c27d68866701794b0be7WnIMbqLngLb0DUY[] = {
/* columns rows colors chars-per-pixel */
"64 64 114 2 ",
"   c #181328",
".  c #252338",
"X  c #1E1A2F",
"o  c #171227",
"O  c #1B182E",
"+  c #1A162C",
"@  c #191429",
"#  c #19162B",
"$  c #140F25",
"%  c #242034",
"&  c #171126",
"*  c #555C73",
"=  c #333349",
"-  c #130D22",
";  c #272944",
":  c #22213B",
">  c #1B192F",
",  c #1F2037",
"<  c #151025",
"1  c #181227",
"2  c #161126",
"3  c #1E1B31",
"4  c #1D1A2F",
"5  c #181327",
"6  c #1A162B",
"7  c #1C182E",
"8  c #221E33",
"9  c #2C293D",
"0  c #171327",
"q  c #343750",
"w  c #2F3149",
"e  c #161025",
"r  c #171125",
"t  c #212038",
"y  c #282B47",
"u  c #191428",
"i  c #110C21",
"p  c #46455A",
"a  c #727689",
"s  c #140F24",
"d  c #171226",
"f  c #1C182F",
"g  c #1F1C32",
"h  c #19152A",
"j  c #181429",
"k  c #2C2E46",
"l  c #363A54",
"z  c #19142A",
"x  c #1A152B",
"c  c #150F25",
"v  c #241F33",
"b  c #1D192E",
"n  c #1D1C33",
"m  c #1C1A31",
"M  c #1E1E34",
"N  c #1F1F36",
"B  c #262236",
"V  c #2D2B41",
"C  c #140E22",
"Z  c #191328",
"A  c #19152B",
"S  c #130E23",
"D  c #2D2A3F",
"F  c #1C182D",
"G  c #1F1D34",
"H  c #292D49",
"J  c #2A2D49",
"K  c #201E36",
"L  c #1C192F",
"P  c #1E1D34",
"I  c #1A172C",
"U  c #202037",
"Y  c #565C73",
"T  c #252439",
"R  c #1E1E35",
"E  c #1C1B31",
"W  c #1F1E36",
"Q  c #1F1D33",
"!  c #1B182D",
"~  c #161125",
"^  c #211F35",
"/  c #3B405B",
"(  c #252034",
")  c #150F24",
"_  c #27273F",
"`  c #3A415C",
"'  c #1B172C",
"]  c #201D33",
"[  c #1A162D",
"{  c #161024",
"}  c #25243B",
"|  c #3A415B",
" . c #252741",
".. c #23243D",
"X. c #1B172E",
"o. c #1B192E",
"O. c #1B172D",
"+. c #1F1F37",
"@. c #1B182F",
"#. c #1D1930",
"$. c #292C48",
"%. c #1A172D",
"&. c #242136",
"*. c #201C32",
"=. c #4D5168",
"-. c #3B3D53",
";. c #140E23",
":. c #1E1B32",
">. c #1A162A",
",. c #181329",
"<. c #1F1C31",
"1. c #545A72",
"2. c #474A61",
"3. c white",
/* pixels */
"  . X o               O +                                                           @ #                                   @ $ % ",
"& * = - @           o ; : &                                                       o > ,                                   @ $ % ",
"  . X o               O +                                                           @ #                                   @ $ % ",
"  < o                 o o       & o                                     1 1     2 $                                       @ $ % ",
"                                3 4 1                                 5 6 7   2 8 9 0                                     @ $ % ",
"                              2 q w e                                 r t y u i p a 2                                     @ $ % ",
"                                3 4 1                                 5 6 7   2 8 9 0                                     @ $ % ",
"                                & o                                     1 1     2 s                                       @ $ % ",
"                                                                                                                          @ $ % ",
"                                                                                      o <                                 @ $ % ",
"                                                              o d                   o X .                                 @ $ % ",
"                                            5 5             o f g                 @ - = * &                               @ $ % ",
"o                                           h h           j e k l & z x             o X .                           @ # j @ c v ",
"b o                                       1 n n 1           o 7 g o m M 5             o <         1 1             1 + N h u s B ",
"V C Z                                       h h             h z &   z A                           A f               @ # j @ S D ",
"F O 6 5                                     5 5           o m M 5                               & G H j                   @ s B ",
"& J K r                                                     h A                                   A f                     @ c v ",
"  L 6 5                                                                                           1 1                     @ $ % ",
"  1 1                                                                                                                     @ $ % ",
"                                                                                                                          @ $ % ",
"                                                                                                    1 1                   @ $ % ",
"                                                                                                    A f                   @ $ % ",
"                                                                    o o                           & P H h       @ # j     @ $ % ",
"                                                                    + O                             A f       1 I U h     @ $ % ",
"                                  & o                             & : ; o               o <         1 1         @ # j     @ $ % ",
"                                  3 4 1                             + O               o X .   1 1                         @ $ % ",
"                                2 q w e                             o o             @ - = Y 2 A f                         @ $ % ",
"                                  3 4 1                                 @ A           o X T r G H j                       @ $ % ",
"                                  & o                                 o > R             o e   A f                         @ $ % ",
"                  d o                                                   @ A                   1 1                         @ $ % ",
"                  g f o     h h                                                                                           @ $ % ",
"                & l k e j   P E o                             o o                                                         @ $ % ",
"                  g f o     h h                               + O     z A                                                 @ $ % ",
"                  d o                                       & : ; o 1 m W                                                 @ $ % ",
"                                                              + O     z A                                             o & @ $ % ",
"                                                              o o                   o d                             5 6 Q 6 s % ",
"                                                                                  o ! Q                             ~ ^ / 3 S ( ",
"                                                                                @ ) _ ` o                         @ h + Q 6 s % ",
"                                                                                  o ! Q                         1 + N j & @ $ % ",
"                                                                                    o 2 @ #                       @ # j   @ $ % ",
"                                                                                      o > ,       o o                     @ $ % ",
"                            h h o o                   o &                               @ #     o ' ]                     @ $ % ",
"                            P E [ +                 1 4 3                         o <         j { } | h 5                 @ $ % ",
"                            h j  ...&               e w q 2                     o X .           o ' ]                     @ $ % ",
"6 @                             X.+                 1 4 3                     @ - = * &           o o                     @ $ % ",
"U o.o                           o o                   o &       o d             o X .                                     @ $ % ",
"6 @                                                           o f g               o <                                     @ $ % ",
"                                                            j e k l &                                                     @ $ % ",
"                                                              o f g                                   @ A           o     @ $ % ",
"                                                      o &       o d                                 1 O.+.@       z @.@   @ $ % ",
"                                                    1 4 3                                             @ A       d #.$.%.1 @ $ % ",
"                                                    e w q 2                                                       z @.@   @ $ % ",
"                  2 o                               1 4 3                                                           o     @ $ % ",
"                1 &.*.o                               o &               @ A                               5 o             @ $ % ",
"                e =.-.;.@                                             o > R                               h L j           @ $ % ",
"                1 &.*.o                                                 @ A                             & :.J x 5   @ # j @ $ % ",
"                  2 o                                                                                     h L j   1 + N h Z $ % ",
"                                                                                                          5 o       @ h o @ $ % ",
"                                                                                                                    5 >.Q 6 s % ",
"                                                                                                                  ,.~ ^ / 3 S ( ",
"                                                                                                                    5 6 Q 6 s % ",
"                            2 &                                                                                       o & @ $ % ",
"                            8 <.o                                                                                         @ $ % ",
"                          e 1.2.;.@                                                                                       @ $ % "
};
