/* XPM */
static char *_8e0ae77cc084088ec6fe5892013abafK3JHUn7Ubz6pRWEf[] = {
/* columns rows colors chars-per-pixel */
"64 64 107 2 ",
"   c #181328",
".  c #191429",
"X  c #1C192F",
"o  c #181429",
"O  c #19152A",
"+  c #140F25",
"@  c #242034",
"#  c #171227",
"$  c #1C192E",
"%  c #2A2D48",
"&  c #181327",
"*  c #1A152B",
"=  c #2A2D49",
"-  c #1E1B32",
";  c #171126",
":  c #181227",
">  c #1D1C33",
",  c #161126",
"<  c #201D33",
"1  c #1B172C",
"2  c #1B172E",
"3  c #1A162C",
"4  c #231F35",
"5  c #221E34",
"6  c #3A415B",
"7  c #25243B",
"8  c #161024",
"9  c #171226",
"0  c #262741",
"q  c #23243D",
"w  c #151025",
"e  c #494C63",
"r  c #44475E",
"t  c #150F24",
"y  c #1E1A31",
"u  c #1F1C32",
"i  c #1C182F",
"p  c #161125",
"a  c #32344D",
"s  c #161025",
"d  c #1F1D33",
"f  c #1B182D",
"g  c #363A54",
"h  c #2C2E46",
"j  c #19152B",
"k  c #262339",
"l  c #1B162B",
"z  c #3A415C",
"x  c #27273F",
"c  c #1F1B31",
"v  c #1E1E34",
"b  c #1C1A31",
"n  c #1B192F",
"m  c #1E1E35",
"M  c #191328",
"N  c #555C73",
"B  c #242237",
"V  c #1B182E",
"C  c #1C182E",
"Z  c #19142A",
"A  c #1C1B31",
"S  c #1E1C33",
"D  c #1F1E36",
"F  c #272944",
"G  c #23223C",
"H  c #1B172D",
"J  c #171228",
"K  c #25263F",
"L  c #191428",
"P  c #18152A",
"I  c #140F24",
"U  c #1A152A",
"Y  c #302B3E",
"T  c #201B2F",
"R  c #221D31",
"E  c #87838A",
"W  c #3C3848",
"Q  c #110C22",
"!  c #1F1F36",
"~  c #1E1D34",
"^  c #2A2537",
"/  c #181329",
"(  c #2A2B42",
")  c #393E58",
"_  c #130E23",
"`  c #120D23",
"'  c #68646F",
"]  c #1C182D",
"[  c #2A2538",
"{  c #1F1E35",
"}  c #1D1A2F",
"|  c #1E1B31",
" . c #1F1D32",
".. c #2F3149",
"X. c #343750",
"o. c #25243C",
"O. c #383D57",
"+. c #2A2A42",
"@. c #151024",
"#. c #19162B",
"$. c #1F2037",
"%. c #150F25",
"&. c #1C172D",
"*. c #1E1C31",
"=. c #424A65",
"-. c #28283F",
";. c white",
/* pixels */
"  . X .               o X O                                                           O O                                 . + @ ",
"# $ % $ #           & * = - ;                                                       : > > :                               . + @ ",
"  . X .               o X O                                                           O O                                 . + @ ",
"    #                   # &       # #                                     # #     , ,   &                                 . + @ ",
"                                  < 1 #                                   2 3   # 4 5 #                                   . + @ ",
"                              & O 6 7 8 o                               9 0 q # w e r t o                                 . + @ ",
"                                  < 1 #                                   2 3   # 4 5 #                                   . + @ ",
"                                  # #                                     # #     , ,                                     . + @ ",
"                                                                                                                          . + @ ",
"                                                                                        ; ;                               . + @ ",
"                                                                9 #                   : y y :                             . + @ ",
"                                              9 #               u i #                 p a a p                             . + @ ",
"s #                                           d f #           ; g h 8 * O             : y y :                         . j . + @ ",
"k l :                                       # z x t .         : c i # v b #             ; ;         # #             # n m M + @ ",
"N B t o                                       d f #           *   #   j O                           3 2               . j . + @ ",
"k 1 V .                                       9 #           : v b #                               ; q 0 9                 . + @ ",
"t V % C #                                                     j Z                                   3 2                   . + @ ",
"  . X .                                                                                             # #                   . + @ ",
"    #                                                                                                                     . + @ ",
"                                                                                                                          . + @ ",
"                                                                                                                          . + @ ",
"                                                                                                      O O                 . + @ ",
"                                                                      # #                           # A S :       Z j     . + @ ",
"                                                                      V 3                             O O       # b D     . + @ ",
"                                    # #                             # F G 9               # #                     Z j     . + @ ",
"                                    < 1 #                             V 3                 H H                             . + @ ",
"                                & O 6 7 8 o                           # J               9 K K 9 O O                       . + @ ",
"                                    < 1 #                                 O O             H H # A S :                     . + @ ",
"                    L               # #                                 : S A #           # #   P O                       . + @ ",
"                  # I #                                                   O O                                             . + @ ",
"                J U Y T #     j .                                                                                         . + @ ",
"              . , R E W Q . o ! 2 :                                                                                       . + @ ",
"                J U Y T #     j .                               j Z     O O                                               . + @ ",
"                  # I #                                       & v b :   ~ A #                                             . + @ ",
"                    L                                           j Z     O O           . .                               # # + @ ",
"                                                                                      w w                             # C < I @ ",
"                                                                                    # ^ ^ #                         / t ( ) _ @ ",
"                                                                                  . ` ' ' ` .                       . Z ] < I @ ",
"                                                                                    # ^ [ 9                       # n { # # + @ ",
"                                                                                      w w O O                       . j   . + @ ",
"                                                                                      .   > > :     # ;                   . + @ ",
"                              j . , #                   # #                               O O     : } |                   . + @ ",
"                            o ! V  .1 #                 u C #                       , ,   & &     s ..X.,                 . + @ ",
"  &                           O * 6 o.8 o             9 O.+.@.o                   # 5 5 #         : } |                   . + @ ",
"o #.o                         :   < 1 #                 u C #                   o t r r t o         # ;                   . + @ ",
"#.$.#.&                           # #                   # #                       # 5 5 #                                 . + @ ",
"o #.o                                                             j Z               , ,                                   . + @ ",
"  &                                                             & v b #                                 # #               . + @ ",
"                                                                  j Z                                   3 V         # #   . + @ ",
"                                                        # #                                           ; q F #     # C u   . + @ ",
"                                                        u C #                                           3 V     o @.+.O.9 . %.@ ",
"                                                      9 O.+.@.o                                         # #       # C u   . + @ ",
"                    # &                                 u C #                                                       # #   . + @ ",
"                  o X O                                 # #               O O                                             . + @ ",
"                & * = - ;                                               : S A #                             Z j           . + @ ",
"                  o X O                                                   O O                             # b v &     . j . + @ ",
"                    # &                                                                                     Z j     # n m M + @ ",
"                                                                                                                      . Z # + @ ",
"                                                                                                                      # &.< I @ ",
"                                                                                                                    o @.+.) _ @ ",
"                                                                                                                      # C < I @ ",
"                              # #                                                                                       # # + @ ",
"                            / *.l :                                                                                       . + @ ",
"                          # 1 =.-.t .                                                                                     . + @ "
};
