/* XPM */
static char *_5f22cf9a28941abbe48abb8414dc60aMuaRYulkImxYih9H[] = {
/* columns rows colors chars-per-pixel */
"64 64 116 2 ",
"   c #181328",
".  c #171227",
"X  c #1B182D",
"o  c #1F1D33",
"O  c #19152A",
"+  c #1C192F",
"@  c #181429",
"#  c #19162B",
"$  c #191429",
"%  c #140F25",
"&  c #242034",
"*  c #150F24",
"=  c #27273F",
"-  c #3A415C",
";  c #171126",
":  c #1E1B32",
">  c #2A2D49",
",  c #1A152B",
"<  c #181327",
"1  c #1F2037",
"2  c #1B192F",
"3  c #171226",
"4  c #181227",
"5  c #1A162B",
"6  c #1C182F",
"7  c #19152B",
"8  c #201E33",
"9  c #1B172D",
"0  c #181329",
"q  c #161125",
"w  c #211F35",
"e  c #3B405B",
"r  c #1D1A30",
"t  c #292D49",
"y  c #1F1D35",
"u  c #3C435E",
"i  c #27273E",
"p  c #161025",
"a  c #1B162C",
"s  c #151025",
"d  c #1B162B",
"f  c #262339",
"g  c #3B415C",
"h  c #232239",
"j  c #1A162C",
"k  c #1E1A2F",
"l  c #252338",
"z  c #252238",
"x  c #555C73",
"c  c #1F1F37",
"v  c #1A172C",
"b  c #1E1C33",
"n  c #1D1C32",
"m  c #140F24",
"M  c #252034",
"N  c #333349",
"B  c #565C73",
"V  c #1C182E",
"C  c #19142A",
"Z  c #282B46",
"A  c #212038",
"S  c #171125",
"D  c #140E22",
"F  c #201E36",
"G  c #2A2D48",
"H  c #1B182E",
"J  c #21213A",
"K  c #1E1E34",
"L  c #1D1B31",
"P  c #1B182F",
"I  c #1D1930",
"U  c #292C48",
"Y  c #1A172D",
"T  c #1F1E36",
"R  c #181428",
"E  c #1F1F36",
"W  c #1B172E",
"Q  c #161024",
"!  c #2A2E4A",
"~  c #1E1D34",
"^  c #140E24",
"/  c #161126",
"(  c #1F1C32",
")  c #19162C",
"_  c #241F33",
"`  c #312C3E",
"'  c #231E32",
"]  c #353851",
"[  c #2B2D46",
"{  c #221D31",
"}  c #88838B",
"|  c #494454",
" . c #0F0A20",
".. c #1A1529",
"X. c #18152A",
"o. c #1E1B31",
"O. c #1C1B31",
"+. c #383D57",
"@. c #2A2A42",
"#. c #151024",
"$. c #181529",
"%. c #1D1A31",
"&. c #130D22",
"*. c #282A45",
"=. c #22213B",
"-. c #1D1A2F",
";. c #150F25",
":. c #343750",
">. c #2F3149",
",. c #1F1D34",
"<. c #1C1A31",
"1. c #140E23",
"2. c #1F1C31",
"3. c #1E1C34",
"4. c #2D324F",
"5. c white",
/* pixels */
"  . X o                 O + @                                                           # $                               $ % & ",
"$ * = - .             ; : > , <                                                         1 2 .                             $ % & ",
"  . X o                 O + @                                                           # $                               $ % & ",
"    . 3                 < .       . ;                                       4 4     3 .                                   $ % & ",
"                                < 5 o O                                     6 7 <   8 9 .                                 $ % & ",
"                              0 q w e r 3                                 @ t y q O u i * $                               $ % & ",
"                                < 5 o O                                     6 7 <   8 9 .                                 $ % & ",
"                                  . ;                                       4 4     3 .                                   $ % & ",
"                                                                                                                          $ % & ",
"                                                                                                                          $ % & ",
"                                                                  3 .                     # $                             $ % & ",
"                                              . p .             $ o a 4                   1 2 .                           $ % & ",
". s                                         . d f d .         . 9 g h p j $               # $                           O # % & ",
"k l                                       $ p z x z p $         $ o j 0 c v 4                         4 4             4 b n m M ",
"N B ; 4                                     . d f d .         0 5 . .   7 $                           V 5 <             O # % & ",
"k l , +                                       . p .           C c v 4                               . Z A S               $ % & ",
". D F G 4                                                     0 # $                                   V 5 <               $ % & ",
"    5 +                                                                                               4 4                 $ % & ",
"    4 4                                                                                                                   $ % & ",
"                                                                                                                          $ % & ",
"                                                                                                        4 4               $ % & ",
"                                                                                                        H j               $ % & ",
"                                                                        . <                           . Z J ;       7 O   $ % & ",
"                                                                      @ + O                             H j       4 K L . $ % & ",
"                                      .                             < , > : ;               3 .         4 4         7 O   $ % & ",
"                                    C P $                             @ + O                 o X .                         $ % & ",
"                                  3 I U Y 4                             .                 . - = * j $                     $ % & ",
"                                    C P $                                   7 $             o X . T 2 .                   $ % & ",
"                                      .                                   R E W 4           3 .   7 $                     $ % & ",
"                    . 3                                                     7 $                                           $ % & ",
"                  4 a o $     $ # @                                                                                       $ % & ",
"                @ p h g 9 . < v E O                               3 .     . 4                                             $ % & ",
"                  4 a o $     $ # @                             $ o a . $ + 7                                             $ % & ",
"                    . 3                                       . 9 g h Q , ! ~ ;                                           $ % & ",
"                                                                $ o a . $ + 7                                             4 ^ & ",
"                                                                  3 .     . 4           m /                               ( ) _ ",
"                                                                                        ` ' /                           / ] [ { ",
"                                                                                      / } |  ...                      O X.o.) _ ",
"                                                                                        ` ' /                       4 b O.; ^ & ",
"                                                                                        m / 5 $                       O O $ % & ",
"                                                                                            1 2 .     . .                 $ % & ",
"                              $ # @ .                     ; .                               # $       ( V .               $ % & ",
"                            4 v E j H $                 O o 5 <                       s .           3 +.@.#.@             $ % & ",
"                              $ $.%.U Y 4             3 r e w q 0                     l k .           ( V .               $ % & ",
"  $ #                           < C P $                 O o 5 <                     ; x N &.$         . .                 $ % & ",
". 2 1                               .                     ; .       . <               l k .                               $ % & ",
"  $ #                                                             @ + O               s .                                 $ % & ",
"                                                                < , > : ;                                 . .             $ % & ",
"                                                                  @ + O                                   H j         ; . $ % & ",
"                                                          ; .       . <                                 . *.=.;       o.-.  ;.& ",
"                                                        O o 5 <                                           H j       / :.>.; s & ",
"                                                      3 r e w q 0                                         . .         o.-.  ;.& ",
"                    . 3                                 O o 5 <             4 4                                       ; . $ % & ",
"                  4 a o $                                 ; .               6 7                                           $ % & ",
"                @ p h g 9 .                                               @ t ,.;                             7 C         $ % & ",
"                  4 a o $                                                   6 7                             < K <..     O # % & ",
"                    . 3                                                     4 4                               7 C     4 b n m M ",
"                                                                                                                        O $ 1.M ",
"                                                                                                                        < 2.) _ ",
"                                                                                                                        / ] [ { ",
"                                                                                                                          ( ) _ ",
"                                4                                                                                         4 ^ & ",
"                              C W $                                                                                       $ % & ",
"                            ; 3.4.9 .                                                                                     $ % & "
};
