/* XPM */
static char * door_fruit_xpm[] = {
"16 16 11 1",
" 	c #9FCB5A",
".	c #F9F9D2",
"+	c #F6F6CC",
"@	c #B2D85D",
"#	c #BBDD62",
"$	c #C8E468",
"%	c #FCFCDE",
"&	c #F1F1C4",
"*	c #E0EE9E",
"=	c #733E39",
"-	c #533034",
"        .+...+..",
"    @@@@...+...+",
"   @@###.+...+..",
"   @#$$$.+...+..",
"   @#$$$...%...%",
"   @#$$$&..%...%",
"   @#$$$&*+...+.",
"   @#$$$&=......",
"   @#$$$&-......",
"   @#$$$&*+%..+%",
"   @#$$$&..%...%",
"   @#$$$&..%...%",
"   @#$$$........",
"   @@###.+...+..",
"    @@@@...+...+",
"        .+...+.."};
