/* XPM */
static char *eb04ed21e43d4843ed3a07f346fcf95cqPLNGTiaWbEYFJ0O[] = {
/* columns rows colors chars-per-pixel */
"32 32 10 1 ",
"  c #09080B",
". c #12111B",
"X c #1B1A2C",
"o c #343124",
"O c #20283D",
"+ c #454132",
"@ c #2A4C69",
"# c #877E5D",
"$ c #B3B37B",
"% c #64A1B1",
/* pixels */
"..O@@%%%@@O...OOO....... OXXX.O.",
".OOO@@@@%@@O.O@@@O...OOO OOXXXO.",
" OOXXXXXXXXX.@@@@@O.OXXX OOXXXO.",
" OOXX.....XX.OXXXX@.OXXX OOOOOO ",
" OOX.....XXX.O...XO OXXX OOOOOO ",
" .OOOXXXXOOO.X...XO OXXX OOOOO..",
"....     ....X...XO .OO. .OOO...",
"%%@@O .O@@O..X..XXO          .O@",
"@@@OO.O.##$$$$$$$$$$$$##.    O@%",
"XXXXX.##$$$$$$$$$$$$$$$#$#.  O@X",
".....$$####oooo##oooo####$#. OOX",
"....$$#oo##++++$#++++##oo#$$ OO.",
"XX.$$#o++##   +$#+   ##++o$$#.OX",
"  ###o+++#$   +$#+   $$+++o#$#  ",
"OO#$+   +#$   +$$+   $$+   +##OO",
"OO$$    +$$   +$$+   $$+    $#OO",
"XX$$    +$$   +$$+   $#+    $#XX",
"XX$$    +$#   +$$+   $$+    $#.X",
".X$$    +$#   +$$+   $$+    $#..",
"XX$$    +$#   +$$+   $$+    $#..",
"XO$$    +$#   +$$+   $$+    $#XX",
"  $$    +$#   +$#+   $$+    $#  ",
"  $#    +$#   +$#+   $$+    $#. ",
".O$#    +$#   +$#+   $#+    $#O ",
"OX$#    +$#   +$#+   $#+    $#O ",
"XX$#    +$#   +##+   $#+    $#O.",
"X.$#    +$#   +##+   $#+    $#X.",
"X.$#    +$#   +$#+   ##+    $#X.",
"XX##    +##   +$#+   $#+    ##X.",
".X##    +##   +$#+   ##+    ##X.",
"..##    +##   +$#+   ##+    ##O.",
"..##    +##   +##+   ##+    ##O."
};
