/* XPM */
static char * fruit1_xpm[] = {
"16 16 32 1",
" 	c #A9B128",
".	c #9BA40D",
"+	c #678A09",
"@	c #C3CA5B",
"#	c #AAB842",
"$	c #7A930A",
"%	c #C62522",
"&	c #D02D2A",
"*	c #B9C149",
"=	c #DC3732",
"-	c #C02525",
";	c #909F0F",
">	c #6F8E0C",
",	c #E63E45",
"'	c #C32220",
")	c #D32F2C",
"!	c #EE9634",
"~	c #BE2323",
"{	c #FEAE34",
"]	c #C82C2C",
"^	c #CB2E2C",
"/	c #E86825",
"(	c #E23A3C",
"_	c #ED4351",
":	c #F77622",
"<	c #CB2E2D",
"[	c #E03E4C",
"}	c #DA3A42",
"|	c #D93430",
"1	c #D8342F",
"2	c #D23432",
"3	c #D32F2B",
"  .+@#@.$@.@$.  ",
" .+@ @@.$@@.@$. ",
".+@ @@ $+ @@.@$ ",
"+#.@@ $%%$ @@@$.",
"+#@@ +%&&%$ *@+.",
"+## +%&===%$ *%+",
"-#;>%&=,')=%$ %-",
"!~%&&==,{'=&%%]^",
"/~==(==_:'==)'<^",
"[}|()')=_,11,{~^",
"^2=(,{'=====_:~^",
"<~)(_:'=)')=,_}^",
"}!'=,_,=,{'==|^^",
"[/'|====_:'=)'<^",
"}[,=)')=,_,=,{~^",
"2===,{'=====_:~3"};
