/* XPM */
static char * fruit4_xpm[] = {
"16 16 10 1",
" 	c #449841",
".	c #317145",
"+	c #4DA13C",
"@	c #BDD47D",
"#	c #89C03B",
"$	c #3E8948",
"%	c #E0F9AE",
"&	c #54B043",
"*	c #6FB23B",
"=	c #377C46",
" .+@@#+$#$++@#+$",
" .#+@%#+@$+@#++#",
"&.%#+@%#%#%#+#%+",
"& +%#+@%%%#+#%#+",
"  #+%#+@%#+#%#$+",
"$ @#@%#+%+#%#$+*",
"$ #%#@%#%+%@++*#",
" &+@%#@%%%@+$*#%",
" &#+@%#@%@+$*#%*",
" &@#+@%#%@+*@%*#",
"  @@#+@%%@*@%*#+",
"& +%@#+@%@@%*#+*",
"& #+%@#+%@%@#+##",
"  +#@%@#%%@#@#@%",
"$ $+#@%@%@#@#@%@",
"=$+$+#@%%@%#@%@+"};
