/* XPM */
static char * fruit3_xpm[] = {
"16 16 6 1",
" 	c #F0BE0F",
".	c #F3C10D",
"+	c #F6C50B",
"@	c #FEDE3E",
"#	c #FED41C",
"$	c #FECE05",
" .+  + .@@@@@@@@",
" ++ ++.+@######@",
" ++ ++.+@##$###@",
" .+ .+ .@#$$$##@",
"  + .+ .@#$#$$#@",
".++ ++ +@#$##$#@",
".++. +. @##$#$#@",
" .+. +. @#$$$$#@",
" .+  + .@#$$#$#@",
" ++ ++.+@##$#$#@",
" ++ ++.+@##$$$#@",
" .+ .+ .@#$$$$#@",
" .++.+..@#$$#$#@",
"+.++.++.@#$$$$#@",
"+ + .+. @###$##@",
"  + ++ +@@@@@@@@"};
