/* XPM */
static char * fruit2_xpm[] = {
"16 16 8 1",
" 	c #FEC949",
".	c #FED553",
"+	c #E9E5E1",
"@	c #F6F2E0",
"#	c #FEE761",
"$	c #FECE4D",
"%	c #FEDE5A",
"&	c #F0ECE0",
"                ",
" .++@@+++@@@++. ",
".+.#$.#.%.#%.$+.",
".+.#..#.%.#...+.",
".@$.%$.#%#$.#%+.",
".@%.#%..%..%.#@.",
".+.%..%%#%#.%.@.",
".+%%%%%@&....%@.",
".+..$..&+%%%.$+.",
".@##.####%%.#.+.",
".@.$%.$%%%.%%%@.",
".@%..%.%%%.$%.@.",
".+.%%.%.%.%..%@.",
".@.%..%.%.%...+.",
" .++@@++@@@@++. ",
"                "};
