/* XPM */
static char *_694b8cbc3014d5ea17b10269ea1d5e7Eo26DLmTTEWKEt9v[] = {
/* columns rows colors chars-per-pixel */
"32 32 6 1 ",
"  c #0E1514",
". c #11271B",
"X c #1A4C31",
"o c #307751",
"O c #44903B",
"+ c #65A73F",
/* pixels */
"OoooXX....X.....  X..X+++++++++O",
"O++OOO....X.....  X..O++++++++++",
"O+++OOOOXXX....X..XXO+++++OOO+++",
"OO+oooooXXooX..X..Xooo+++++++O++",
"++++OOooXXooooXX  XoooOO+++++Ooo",
"++OOOOoOOXXXoo..  XXXXXXOO++++oo",
"OoooOooOOooXXX..  XXooXXXOOO+++O",
"OoooOoOOooooXXXX....oooXXoOOOOOO",
"ooOOooOOOoooooXX....XooXooOooOOO",
"ooOOOOOOOooooXX.  .XXXXXXXXoooOO",
"oooOOOOOOooooX..  .X...XXXXooooo",
"ooooOOooXXoXXX..  .....ooXXXoooo",
"ooooooooXXXXXX..  ...XXooXXXoooo",
"ooooooooooXXX...  .....XXXXooooo",
" ....                    ....   ",
" ....                    ....   ",
"......XXoOOOOO+++OOXXX.....XXo  ",
"....XXXooOO++++++++oXX.....XXO  ",
"....XXXooO++++++OO+OoXXX..XXoO  ",
".XXXo++OO+++++++OOOOOOOOOoXXOO  ",
".XXoO++OO++++++++O++OOOOOoooOO..",
".XoOOO+++++++++++O++OOOoooOOOO..",
"XXoOO++++++O+OO+++OOOooooooooo..",
"XXOOO++++OOO++OO++OOOooooooXXo..",
"XoOOO+++++OO++OO++O++OOooXXXXX..",
"oXXXOXXooooOOOOOOOO++OooXXXXXX  ",
"oXXXoXXoXXXoOOOOOOOOOOXXXXXX.X  ",
"ooXXooXXXXXXXooooOOoooXXXXX...  ",
"XXXXXX..XXXXXoooooooooXXX.....  ",
"XXXXX...XXXXXXooooooXXXXX.....  ",
"   ..    ..                     ",
"   ..    ..                     "
};
