/* XPM */
static char *result[] = {
/* columns rows colors chars-per-pixel */
"64 64 28 1 ",
"  c #6A6B6C",
". c #6C6E6F",
"X c #606264",
"o c #737575",
"O c #6F7172",
"+ c #646567",
"@ c #565759",
"# c #5A5B5D",
"$ c #66686A",
"% c #5E5F61",
"& c #515256",
"* c #48494D",
"= c #777878",
"- c #4D4E52",
"; c #7A7B7B",
": c #414347",
"> c #858685",
", c #949390",
"< c #8C8C8A",
"1 c #37383D",
"2 c #828381",
"3 c #80807F",
"4 c #9F9E9A",
"5 c #7D7D7C",
"6 c #7D7E7E",
"7 c #B4B1AB",
"8 c #808181",
"9 c #DCDCD9",
/* pixels */
".=>$=.X2 #@@@&@@-& .$-##@@@@@%%82<=XXX##@##+;6=#$++++   6>.4>499",
"&OO@+o=5++@@XX@&%oOo=o%@@X@@%X@==2o XXX$%%+8<<<2+$  ++=OO,,,O=79",
"-.@@&oo5$+  Oooo$$$+.#ooOOoo %X5.;5$.ooo52=.=.3o>>>>86= 3,43*X49",
":&$X  .oo==o$O=======ooooOo;5=oo@ 3222552>>>>><<<<>2<,<,<<<<;4<,",
"1##oO%$o.==O O==OO=oooooo$Oo5;oo+O;6>5;5822>>>>>>>2=<,,,>< <4<.4",
"1%-ooooo=X*--*--**---------&*$85823;#&@&@@@@@@@@#@@##&#>,,<,4o 4",
":@*-ooo;O::***************-*-*o>52<X:****--**-----&&-&*#,,,,6+O2",
"#+ -$ooO*X= .=ooo=+-%oo===$ 8=1O = @6=;o;6;;;52=8236>2,#+>,4+>>7",
"*$=X+o=X&oO+%==;;;o.O=;556X ;>$*>o-52222>><O.O.6<<<<,,,,->,4 377",
"- =X+O;X#=Oooo===o==o=;;;;;;=6=@>o&853822>>.;6==<<<<<<<,@<,4 677",
"*$=XX.=X-O;==;;66;;;;533633336 @<=-;322>>>>$=;.=,<<,<,,<&>,4 677",
"*$=%%.=%@$######@@@@@@%%%%%##+.#<;&=22>>>>>8>>><,<,,,,,6&>,4$577",
"-$=%Xo.@X+:**:*:::*:::*:::::**o#>=#8#@@@@#@###%#####@##,@.<4$677",
"-$o%%..#+o-&&&&&&&&&-&&*-&&-&-O#>o#o-@@&&&&&-&&&&&&-&@->#O<4$577",
":$5#%.o##6%%XXXX++XXX+XX++X+%$o#>=&2=O..OOo=====ooooooO,@><,$674",
":- #%.o+:;.$.  .. .Oo  OOOo X8&-2;:O>oo XX+X%XX++XO2;24.-<,, .=2",
":&@##.O##O#$ ..OO X-#  oO..X+oO&3O@6$ 3.$oooooo;553>6$6,-5,,OX.4",
":-@%# .@%+*o%@&%o.+%X O @@@O%#o&3o*+# 6oO=32><>>>>>>3++o-><, O <",
"-%#%% .#- O% .X# $++++$X% o@ O%&3o-$635;oo5322>>>2>>><3+&2<,OO54",
"*#%%%.oX&  %-&---&+$    .OoO+O+@3o%6;;;;oo;62222>>22>>><#2<,OO54",
"*@%#%.=%@OO$*--&*- .OOOOOooooO.@3o#;;;;;==;68222222>28>>#2<,.=.<",
"*+O#%.o%&O$.OOOOOO .OO.OOooOO-+#6o#;;;;;;;;533;883826=32@2<, ;,4",
"*$o%% oX&O. .. ...OOO..OOOOOO-X@3o#;===;;;;;5;o636688233&2<,+=47",
":+O%% o+@O......OO.OO.OOOOOO=*:#3o#=O.o;;;;;;;566668222>@3<,+=47",
"*+O#% OX@O ...........OOOOOO=--#6o%O..o;;;;;;;633668222>@3<,+=47",
"*+O#%$.X@O ...  ............o#&#;O#O..o;=;;;;;666553822>&3>,X=47",
"*$O%#:@ @O $      ....... ...o @;O#o.O======;;;;;;;5632># :$+=47",
":$O#@:*#@.$        ...     ...$@;O#o==o=o====;;;;;;;;;6>@#:#+=44",
"1+o%@:-X@ $O               ...+@;O@ooooooooo==;;==;;;;58#+:%+=44",
":@%:%1-$@.$               ....$@=.#ooooooo=o==;=oo;;;;53#+:#.@=,",
"1*1XX1-+@.                ....$&o #ooooooooo====oo;;;=;5# *@<X$6",
"*- O#1&+@.$      $$     .... .+&=.@oooooooo=====o==;=o=5#o-@><=>",
"-@+.&1&+@.$     $$$    ...   .+&=O#Ooooooooo==o=====o.Oo@.*->; 4",
":.-+@1&X&. $$$$ $$$          .$&=O#ooooooooo====o===oO=o&.*@>%;,",
"-#$$@1&+*+$  $ $$             X-=O& Ooooooooo=oooo====oO@O:*22 ,",
"1-% X&X+:&X$$$ $$$$$$        @*-=.*&+OOoooooooooooo===$&*6%X>>Oo",
":@:& %$X:#X$$$$$$$$$$$       %&-o.-#+OOOOOOOooooooo===O%*; ;2#@5",
":# :XXX%&$$$$$$++%%++$   $$$$.X-O &O..OOOOOOOOooOOoo===;&$ 6%-o<",
":Xo@#$#%& $$$$+XX##%X+$$   $$ +-$$&.......OOOooOOOOooo==@X.8@ ,,",
":X.&#$##& $$$$+X%%%#%X+$$$$$$ +-O$-.... ....OOOOOOOooo=5@+O2% ,4",
":XO@#$##:%$$++$$#@###+++$$$$+$X-o$-....    ..OOOOOOoooo &+O2%$,4",
":+O@@X#%1&++++$+#&@#%++++$$$+$+-O$* ....    ...OOOOoooO@*X.8%$,4",
":&O@@%##*%+++++X%###X+++++++$ +-O+:# ...    ....OOoooo.+-X.3#$>,",
":-.@#X%#& X++++X%%##X++++++++ +-o+*%X%$..   .....OOOo++.-%O2@ o2",
":@.@&-@%-$+++X+XXXXXXX+++++++$+-O+-   %+.     ...OOOOOOo-#&X@+3,",
":X.@-:-%-$++XXXXXXXXXXX++++++$X-O+-$  $+X     . ....OOoo-@-#&+,4",
"1&+#-:-#&++X%%%%XXXXX+++++XX+$X-.+-$  $#%     .  ...OOo=--&##+=>",
"1*@%*:&%-$+X####%XXXX++++X..$+X-.+-   $XX         ...Oo=&#-#%#%o",
"1-&X---#-+XX%%##%%XXXXX++%.O+X%*.+-$ $$ X$ $      ...Oo=&#-#%#%>",
"1@&%&-##-%%XXX%##%XXXXXXXXXX%X#*.+-$$%++X$   $    ...+.o-$%.%#$,",
"1@&@&X$@*X%XXXX%#%XXXX++XX++X+#-.+-$##%##          .%@XO*O=5##$<",
"*@#&-%+&*%%%XX%%%%X%%X+XXXXX%%%* X* #%X%@           +4#O*.=5#%O<",
":&+@&%X&-X&%%%%%X%#@@%XXXX%%@#X*+%-$##### +$   $    X #O-+o;#X5<",
":# @&%#--$%#XX++%@%#%#%+XX###X%:#@*X%%XX+  $X%+ .... X O-%.=@+<4",
":@$&&% @*+*1:::1::*:::::11:1:%@: %*$X%%%%X+X$$X+++++$...* .o&$<4",
":#$*&%$&*#111:::::1::111::::1*@:.%: #**::::::**:*****:+O* O=& <4",
"1# @&%+X1&&:******-:*-*****:*#:-$ :&+&@@&&&-&&-&@@@@%*+@*O.=@.<4",
"1@#*&%#  1*&&&&--*--&@&&&&&&*:-$#$O**@@@@@@@@@#######X-* $ o##o,",
"11**###%$%*&&&&&-&&&&&&&&&-&*@$XX+ $*&@@@@@@@@#####@@&&  +  O% ;",
"1-*%#@@#@%+X-%+XXX%%X+++X@X+$+XX#XXX     ... . ..O.#+OO$++X$..O>",
"1&&@@&@%#@#@&@#%--@@@&@##@####X%&#+@%X%%XX%@%%%#X++XX+$%X$X+$ o<",
"1&-::@@%*:*******&&&@@-*:****:*%*#@*-*-**--&#@#@----&&&*@$$+*-o,",
"1**--@@&*-*:--:*&@#@@X&-&@**-*:##%---*-#**&%%XX+-*&@-*-*-+$%X-O>",
"11*1**:&::*-**--::***:*-----*:1&&@*1-&&---*:---:-&&&&&*:*@:@:&XX"
};
