/* XPM */
static char *result[] = {
/* columns rows colors chars-per-pixel */
"64 64 67 1 ",
"  c #57534D",
". c #605C56",
"X c #524E49",
"o c #5D5853",
"O c #4B4742",
"+ c #5A554F",
"@ c #69655E",
"# c #433F3A",
"$ c #66625C",
"% c #6C6862",
"& c #4D4944",
"* c #6F6B64",
"= c #55504A",
"- c #79756E",
"; c #484440",
": c #403C37",
"> c #635F59",
", c #504B47",
"< c #86827B",
"1 c #726E67",
"2 c #75716A",
"3 c #46423D",
"4 c #3C3834",
"5 c #827E77",
"6 c #7D7973",
"7 c #8B877F",
"8 c #2D2923",
"9 c #908C84",
"0 c #393530",
"q c #27231E",
"w c #959289",
"e c #36322F",
"r c #332E2A",
"t c #9B988F",
"y c #4F5122",
"u c #ADAAA1",
"i c #5A5B29",
"p c #44441E",
"a c #0D0A08",
"s c #201D18",
"d c #656A2B",
"f c #6B722B",
"g c #A19D94",
"h c #767A3A",
"j c #5E6228",
"k c #191610",
"l c #676639",
"z c #A7A39A",
"x c #4D492E",
"c c #3C3A1E",
"v c #B3AFA6",
"b c #575436",
"n c #666050",
"m c #534D3E",
"M c #70703C",
"N c #5D5940",
"B c #343218",
"V c #625F3D",
"C c #6B694B",
"Z c #7C8536",
"A c #8C9744",
"S c #807B66",
"D c #C5C1B4",
"F c #908B72",
"G c #BBB7AC",
"H c #858B4A",
"J c #AFBA5D",
/* pixels */
"X4o-*g6-vGGzuvvuuuw7gg% 521-r4.o< 0#.%71*<55-2-211%b,.Vjfdp8Oqq#",
":11otzGz9zzSMC<9wt97w<<w76wX;.=+6; Xo25$;.@@.$@$>.o=,Njydic4:84=",
"+%>1G<5,>GvSjyx1gvuuz%3.-7wX& >+6 X,$6 3q+*1%*%$>>$> MipMp8,:e#=",
"7.$D-a8:1%>Cdyq;o..o =;08,w-Oo$q%6O -:so4;++&3#33;;mlhjjjBs++0#:",
" gG<aaq8saasdpaaaaaaaaaas41w7*qe+96<0k$.b*21o=+o+=&llfiyykk;.+#q",
":Dzqa3o1@@<Fhcq3%1@rBybo= o9w>84+<t$r-#8yl2---2$.*@NyfcyBspln>:8",
"5vgss1>-,7zDHc;9zuzmMhl@+$>tt%>#.7-.SF3xhh66--1****..x0pBxihhn;3",
"Dzg8s-5=-vgvHp$9z<:pfffV+:ng955X<>#NAZibhS<@2222*1*$$o:yfddhZl;&",
"Du7:s69<DvuvSx6wu%BVdfdiiV-t<76,5@>hhiB8.<<6XO221*=O@.VfZAhdhx0#",
"Dvv$a6tvGuuuFb7tu-pMMhyVhS-vw<6;-*.Cfy8k=-55@%-22*>>*+jfjfipp:0:",
"DGv+a5gzzvuvwN9tu%xMMiyM655vt95,5@.1Hdq#*-6-%*222*1$$=jiddpqk4#;",
"DGv a6zgvuuvw.wtu%yMdl16<5Su* oX6@>%Fy3-5552o> X,3o+.oVjicqBk#;;",
"Dvvoa-Duuzuut-twz*bhlM-6<<Su&sO+6@>%5%%-76-=03#400::XoCxpB8ks,OO",
"Dvu+a1Duzzzzgwt9t$@95S5775-u% *X-%>@<76576=8#X ++o  X nppycB,o&O",
"Dvu+a*Guzuzzzgg<w*S97<777<1uw96;2@>$w5*57or&$.>$>$... mbbmBjn.,&",
"Dvuoa@wuzttzgt57t9SS9997>.$u9<-;2@$$95*<*8O@>.>$>>..>.NliNObC$,&",
"DuuoaO--zttgt-<gww7<977=&&1u95-;1$$@ww-X8X$$-2221*1@+$nbx..=*$,&",
"GuuoaX5%6gggt99tw9977<X $*Svwo+X*@>$t-0k=@@<6566622*o > 36$o1@&O",
"Gu<+k@o2X<w<67ttw6657+X$Xo%g<1@,1@..9%04*@79561. @%**+,oo<*o>$,O",
"vu74a+6$:w@>o .$>=oo.+.+>:+5<5-;$ + <9Xr%79<-=8qq4;%@$=Oo7*+%$&O",
"vgu&aX%4tt.7-261$>1%.<*&#:*z71-#=OO,25rr7w61+q8, ;;o.%$OO6. @.3O",
"zgg:s<tgwqX>.oo+& +X,+<<6%%t9*1:,3:&$>Oou76+s4--%. ;>*@>r.1+@.;3",
"ut9eqguv s5666<6%262-6<w7$$t5-2#XX#,*2*&;%1&q27--@;#*-$=8@2o@ X;",
"vg-q>z33#&9w<tw-5799<7>r;51-*52#.o  --.&4@%ee656-1&eo$.:4o*=,=,;",
"zz72wsk5wgw9679$7w9977- 4o<-5513*1%%6.O;X6%#4%*2-@#8*6>,q0+++oX3",
"%79wqk<ugt95-9w7w997<<65@Oo-226;o51-@mO4&11=e=+o.&s05-.08bMC=;Or",
"X-wqa@gtgw><5ww<999<<<6--%,=126@1-1@mxnXOX%>3&&:eqe1-+O:bhAfb&0e",
"et2a=gwwg.X9599<997<<<6-21%&X1**-1$+yN@*o&*2>=;3# %6>+3;hAiBe$48",
"r9*q7tw99o57<77<97<<<5-21*2%=+*%**nbjj=1o#+$%.o.$%>.+&84fiqk;10e",
"e7@8$699557<<771<<<<562212-2% .o.>mVhilb4 ==.$$..ooo#q:=jipr,%4r",
"87@s=%59725<<7<25<5566122@@%-%<@>2OCjpcB:>oX.Xo..,,&r;+,bi4:,@:r",
"&-.q,@2<<C*<<<<655566-*2O&.%%w703 % xr#N:=+2.++ o=;;&;,&NVO4X=4:",
"<9g$clCCniV5$27--666---=#@%@9w80#0o%mX%n=X**+.+=X= X && C=4O2=&#",
"-..w*ifyjib>*1-%@11*111,&>@9783 ;&3+%X>$$$.oo+.=&+;,X,= +##-+00#",
"&O;+9ZfdZdjV*2*%*1>o@.=o=%w<;r=o%&&&-$; + X,,;::;;:;3;;,;&6o;:ee",
":,o&SHjdhidl7tgwww979o6w9t6*X8O&+%O%6*$r0O;3#:::##3######2>#4e#3",
"XX nFlyyypx&@55555555#252*%>*;0&XX@9.>=ss;,&&&X=,&&;O;333,=,0e#+",
"%%=F2lippyc:,+o      4,=&@@*%%&#X%w$>,8k8:#3O::;;#:#:04e0:O ;0;e",
"=-564xykycaasqqqqq88q88sk:$*@@%#@t$=&rke=oVVN=X +o+X==X,,O:#X3:e",
"7<%0aqxkxsaqr:;OO&&,&X$1o;+@$%%:+2304s0+NMjilVoo.>.+= X==+X#;&;#",
"5-.8aOX0pqseO+.>$$$..>*>@,X*@$>: 1o+q:ooNdfhdiN+o =. &=,X+*XX,;3",
"6-1ea#o0=n=.7w77gtt9774,.0 <@+%0X@@.qO .2CZhjyx ++=+  oX3>*;.X33",
"$21#a#o6z*gwttt9wwtz2Xo:#.@<@o#e,.@.e3X5$+hfB8:+o..+ oo,4.&+.=:0",
"2*@4a39Dg-$.>$*$@.o+ -2o:o>-$o&4X>%.e3=$e#Cdqs;X=XX +o,reX+++X:4",
"61>4s:9772o1% @*.&@.o*@.3e>-$>.0,>..r==3r=%Nq;. o+&=++#r0;X=+=::",
"-2%:q46<*$<-1%11*%1*>=.$#4$-$>.4X,&,3o:=.@>=m$.o.o+=o+XO#Xo=oX4:",
"-1@#k81%*-1%*1*$*%%@@$ o::$6@+O4X,;3+>& @..oo.o+ + =   =;>+=+,4:",
"2*%4a8>o-1*%%*%+%%%@@@$0#;.6%&44X,;&o.,,...oooo    =X  ,3 , +&44",
"1%%4a4$o**%@@%@+@@@$$>$0;3.2@&:4,XO&o.O& X o++++   ==&O&3=&X O04",
"*@@4qc+$%@@@%%o&$@@$>.$:;3o1$X:0,XO&oo;#;O#X  ++   =:8;;; O& O0:",
" $$3iy0$%@$%.=O3,X$@..>3#;o1>=3eO,OO++O4& ==     = Xr#=,O ;, Oe0",
".$>ifBk=@@@.3r###O,..o.;:;+*.XOe;&O3  O:;,=     =XX&4O&O&X;,=Or4",
"1$ojjBk3o>.383=X  &&.o,, #+$o Xe;;&m==O:O,,o===X,&OO4OOO&+;OX;e:",
"$>ojyqse.> r4X,X=  +@@+#O0 .,=&e&;OxcO;4&Ooo,,,X,&&;3;NX&nb3=;ee",
"$.oxcsqOo==03+ == ++$nX::e=>,&3r,&##q4x##.>XX;:#:#O&&,m+NVc4X;e0",
">+O8c80n&&3 **>onn%@nCC40#no :4eXO::r3NxX>==#qe004:ONmNillxCm;ee",
". XBk4xbVmm#e0err0:bHhVplcb>$4eeX3mmrmmcm&X#s4;33O;4blldhAAc#&ee",
"Oo,saByMAx#r#3;;;+MNMZjMxVl==3e80mnmc4xcr;4s4;##O&;mNlffAZsa;O88",
"eo&siZjZAflx:&&&+.CMddjydMxlo#q8&=mxiip8qr8:O;O;,ldZAhdfdqcp+&8q",
"3o.mijjfZhx8cymNlHAhfjpBcyfM&#qe,+& ljiypjhV&O=VChAZffjycppin:r8",
" 0:.bdZycBpppfdlZAhfdpiHpyC3r0rqoo8:idffjhfix;OMZAAhyfJiZfpC#88r",
"rr8e+AZsyyidifyMHfddxpbicr=rrqe8O08qcdfpyiccO,,MZZjHyAJ8MJcq04s8",
"s8e8bHBdihpypxbVdxyix:;xr83q8r8seqrexllypqse#;;VhddjcHAayA8ksqq8",
"8e38bdch8csqqbbe:4cpc033:00rq0#sr883lfiysase:##mbBqpplMkcfsakqe&"
};
