/* XPM */
static char *result[] = {
/* columns rows colors chars-per-pixel */
"64 64 103 2 ",
"   c #64615C",
".  c #625E59",
"X  c #53504C",
"o  c #57534F",
"O  c #514D49",
"+  c #5C5953",
"@  c #6F6C66",
"#  c #6A6762",
"$  c #7C7973",
"%  c #4B4844",
"&  c #3F3C39",
"*  c #908D87",
"=  c #494541",
"-  c #827F78",
";  c #33302D",
":  c #433F3C",
">  c #5E5B57",
",  c #716F6A",
"<  c #676461",
"1  c #84827C",
"2  c #46423F",
"3  c #7E7C76",
"4  c #4D4A48",
"5  c #9B9891",
"6  c #595653",
"7  c #68645B",
"8  c #3C3937",
"9  c #5A564E",
"0  c #96958E",
"q  c #565248",
"w  c #757167",
"e  c #615D55",
"r  c #75726F",
"t  c #797670",
"y  c #252321",
"u  c #6C6A65",
"i  c #93918A",
"p  c #373431",
"a  c #8A867D",
"s  c #2F2C2A",
"d  c #8D8A84",
"f  c #201D1A",
"g  c #888681",
"h  c #A8A69F",
"j  c #78746D",
"k  c #9E9C95",
"l  c #2C2823",
"z  c #A2A098",
"x  c #3A3732",
"c  c #5C5C2C",
"v  c #13110F",
"b  c #5E5A50",
"n  c #636038",
"m  c #555527",
"M  c #1B1816",
"N  c #A5A29C",
"B  c #74733B",
"V  c #6D6E31",
"C  c #7E8239",
"Z  c #4F4B42",
"A  c #46441F",
"S  c #6C675C",
"D  c #7A7C36",
"F  c #B3B1AA",
"G  c #524E3C",
"H  c #59563A",
"J  c #504F27",
"K  c #686832",
"L  c #35331A",
"P  c #4C4A24",
"I  c #716C5C",
"U  c #4B4834",
"Y  c #86893F",
"T  c #666151",
"R  c #ADABA4",
"E  c #433F31",
"W  c #686543",
"Q  c #6E6B49",
"!  c #878276",
"~  c #72762D",
"^  c #D2D0C9",
"/  c #423F26",
"(  c #787559",
")  c #63642A",
"_  c #73714B",
"`  c #817E6E",
"'  c #C8C6BF",
"]  c #7D7A63",
"[  c #B9B7B0",
"{  c #7B7B43",
"}  c #5E5B42",
"|  c #8C8979",
" . c #3D3B1C",
".. c #C0BFB9",
"X. c #262413",
"o. c #8F9349",
"O. c #807F4D",
"+. c #070405",
"@. c #86874D",
"#. c #DCDBD3",
"$. c #84835D",
"%. c #918F71",
"&. c #9DA052",
/* pixels */
"h 5 z h N z 0 d F ^ 5 k F h i 3 * %.K ! F F u r g - , 6 . + g > o 5 X = # # , r @ . a d $ t 3 t     u , , t - w   X > > . > = . ",
"R g N ^ ........^ ^ * F F z 5 i k | Q k 5 k h 5 - d 3 . .   5     N t = # < t t j a ! $ j r r u   . < , , # u $ r u @ @ , > 4 o ",
"..[ N h F z z R N g N [ F h h z h z 0 i * d 0 i - * * t # i 0 < < 5 d @ . 3 g t t $ w @ u , , @ u < u u u < 6 6 + 6 6 + 6   . # ",
"#.R N ..& ; x 2 2 % % & 8 x 8 x p p ; ; ; s s ; p p ; p ; 2 R < # z j l ; s s ; s l l l y y y y y y y y y y y f f f M f   j > u ",
"0 # ' h +.8 d # 2 O = Z O 4 4 = 4 4 = = & : : & p x 8 < > 4 k @ u h 8 +.O % s ; l s ; ; ; p 8 p p ; l s s y y y y & p : k @ 6 O ",
"0 #.#.5 M 1 #.0 1 i 5 0 %.%.* R F R N k *   $ r , r , h 0 1 N u 4 5 X p i r o 7 ( ]   u 3 1 1 3 $ , > O.@._ b 6 > 3 . @ N # @   ",
"[ ' ..5 y g d o 9 | z O.C C ] i * i d 0 - U $.] $ 3 - g < t R 2 O 1 6 & w Z q @.C V E , $ u # . @   P K C ~ m = #   X 7 5 +   . ",
"h N g [ 8 t $ 0 @ ] K ) ) m A l & : : : 8 ~ V P w | k d j d h O # z . ; e t W V J A l ; x ; ; s s y l P V J X.G i   . a ! O X e ",
"F ^ z ' = X N ^ i @ t n A m A f 2 < , S ( B A / ` N z i 1 a F O < h # s g g ] ~ m A f l 2 = % 4 % X > q K A L $ 1   # * - + . # ",
"^ #.R ' 2 , ' #.^ g ( Q J U L x 1 h F 5 * $.B c ! R z z * a F 4 > N # & * a $.D c / M = # u $ $ t j u 7 n A w $     r d - 6   @ ",
"R #.[ ..O , ^ #.^ ' ` E q t O q j i - 9 d 0 ~  .@ h z N 0 d h 4 > 5 < : * a ] ) c L M > + + #   O   @ S B | d 7 @ # r 0 1 o . . ",
"0 ' F ' = 6 ..#.^ ' r f + z q $ [ ' 5 # @ i K E r 0 k z * , z = < k   x | d ! D c L l q   $ 3 3 + 6 < q ( N # , , # u @ $ o 9 o ",
"g z 5 h M M g #.^ ..u s % ` b z ..N F 0 & # ( ` * 5 z i & 4 i O , - 6 v @ i | J A X.f x # $ r $ # p 2 o 3 k $ @ r + y 2 , % % X ",
"z 1 a g M & R ^ #...r ; p - r g F k ..3 X -   ` k z z * O ` * 6   @ O s - i - c P v l 4 > $ @ $ > &   = t k $ # , 6 8 d d : o 6 ",
"k 3 - h M   ^ ^ ^ ' 3 s % k z 1 k ' z , 1   ` | i N k 5 a w d   6 t o 2 0 d 1 _ A v : < . < 3 @ o u 4 4 $ N 3 7 # < , $ @ O o > ",
"k - 5 * s t ^ ^ ' N : ; = 5 5 ..- * g k y 6 i | @ * 0 5 i $ g O o $ X % 5 d - } A M Z u i >   > t p & . 1 d < < # < r * , O 2 + ",
"d d [ R 8 # ' #.h y 8 l s u * ' [ * ..R v % w S u t i k i a 5 8 + d > = 0 * % L P f E 7 0 $ < r 3 f ; b 6 O 6 . u # , * - 4 2 > ",
"N N ' z p   #.R y p s f , h N 1 u X , O v * 0 ! t d 1 * 0 d z & 6 *   % 5 Z M U P s q 9 u 4 2 4 8 v q + X O e +   # r g t O o O ",
"[ 5 N R ; < [ x y y s N 0 h 5 S 8 & ; l , k z 5 a r 1 3 3 * h & O 0 e 4 + f l G P O w 4 : s s f f Z #   7 9 X 9 + > r g - 4 % + ",
"^ N h h p > 4 y l s F ' [ i @ * $ - $ r h 5 z 5 i w > g $ k N : 6 0   s l y & ] G I 9 x <   # O e # w S . . q % > 6 t g - O o   ",
"' F F N 8 X : s f u R F [ i # d # 1 j   0 N h 5 | $ + > 1 z h & O i < s ; y e ` } w & o 7 6 7 9 o 7 w 7 e b + 4 X > 1 g $ X o . ",
"' F [ N & 4 4 M % F k F [ i @ 0 j * $ - g 1 R 0 * ! @ 8 < z i : 1 * . l f : j S T , :   # + < o   T I   b b + X p # g g $ O o . ",
"[ R N k : 8 X p $ ' [ F F * 7 k R N N d + 1 h 0 0 i $ 6 g z a . 5 i o y ; > 3 I e , = > @ u # . o = w . 9 + e o + - 3 1 $ 4 O . ",
"[ F [ i : 8 X & - ' F R N i e 1 * 5 i   + - N 0 0 i g   * 5 d > j g X f x # a w e w 4 X e .   . O = @ e 9 9 e o > 3 t * $ O O X ",
"* 3 F k & & o & - ..R h z * : g 1   6 - + 3 N 0 0 i 1 + 1 i 0 8 8 3 4 f p e w e   r : &   X % Z o : j . b e e 6   $ $ * $ % 2 4 ",
"d i F 0 = : X 8 < F R R k w i r t T X X 1 0 * 5 0 * # 9 $ z z 2 o g   f ; e e b w . o 6 X   2 : 2 r S e e e   o > $ 3 * w O o o ",
"t @ k 5 & & X x   * z z 3 k R   r S o X d z g g g 3 r > 3 N k 2 o g > y p 7 I S   9 r > = q % 2 % u # T .   + : . $ - d , = % 2 ",
"< O a k & ; 4 8 # z - w k d 7 * k k b + t t - # < 1 1 u 1 z k 2 o g . f p   I U = e o O b @ @ X = X > 7   > o o   $ ` - j = 2 6 ",
"$ > a 5 & ; 2 8   z a 3 z . t 5 h k 5 u < - i a ! a 1 u - z 5 & o g > f p # I Z   7 O o r @ < # O O e . > . . b e $ 3 a j : 2 . ",
"r o a 0 s y : ; 9 z h a O i $ g h 0 z , 4 0 i ` K } - , $ 5 a 8 o 1 4 M ; j w S   T W c ` o 7 @ o X < X +   > %   j a < u : : o ",
"u X 1 * s f ; % 2 j ] } q k z 1 i 5 t X @ 3 $ _ c : , r 3 a $ 8 o 1 X v p w w , < } B V l O < 9 = <   + > + 9 q u 3 r < < & & O ",
"$ > a 0 8 M ; 8 = ` U  .Z w 1 3 k 0 , a a - * ` x 6 @ 7 3 a * 8 O - 6 v p @ w @ < 9 ) X.f b e Z . # < . 6 q { B O 7   $ r : : o ",
"i - a * p y 8 v X * Q c L U + 1 0 1 w 3 a 3 1 * > = + 7 b * 1 = 6 r X v ; t j # @ . / p Z T b > X o . 7 + E n / ; 7 - j @ : 2 o ",
"g + - * l y : v Z | ] W p Q Q I W S   j a $ + $ = % @   @ 5 d = o r + M f Z Z : e ; E Z 9 S } G X X O < % x 9 E x 3 3 j # 8 : 4 ",
"* @ i * ; s 8 J K H I - @ ( V c n p o j , S 9 b 9 S 7 I ! d - 6 > 3 2 f f s Z Z 8 2 Q T + 6 G / 2 4 > 9 = X } H H t t , # : % o ",
"g   - g & ; 8 C C f s ` ! ] B J X.f T T 7 w 7 @ S u I Q ( * a & 4 j X M y E U O o e 7 q o 6 X G B B W E : G W { B T t t @ 8 ; 4 ",
"1   i g x l x Y J M l S S ( U L M & ( G # w 7 e w b @ I I d a ; + $ o v l / 9 6 = > > 9 o % O Q C ) L ; % Q Y V L % $ j u & x o ",
"i * a 1 ; y E D ~ / # * j G U P X.2 W H b I . 5 h 4 X S t 1 ! ; % t X v f U * 3 4 : W n % 2 : T D P f > ! I ) K P G , w # : = 4 ",
"5 g 3 1 ; y P C V L 7 t g 6 L A ; X   E m J g R * - O 6 , ! ! ; = w o v l $ * u # O E P 2 O X . G  .: ! j > H B m X.> r u & 2 o ",
"0 - t g l y W Y A L ; a $ #   I o < @ < S q g a 1 d t 4 . ! ! p = w X v # * < u u > = 9 7 . + # > o . t e q n V X.v o r # 8 : q ",
"k 3 j 1 y y Q Y m X.; - a . N N r < d 0 d 4 + a - - a # p 3 - ; % t 4 v @ , # u @ 6 < 3 j   o r u   : O e X q J l l O , # 8 & q ",
"0 3 , - f s w @.L v % $ t j d a 3 t j t $ . % 1 3 - 3 & > $ $ ; 2 t % f & . @ # < X # # .   + o o > % : . X 9 E l % 7 u < x 8 X ",
"* - t $ f y ! o.L f , - 4 1 r t 1 - - r r @ l . 1 $ & 6 1 u w s & t & s > & 7 r 6 & , o > . + + 6 + o s o > q l o b 9 .   8 & Z ",
"t , 1 r f y j o.L v X 4 O d u $ - 1 - $ < < f 2 9 & % - , # , ;   $ p y u X 8 % ; = @ + + . e > + O o M x % s Z b 2 > 6   x : : ",
"$ > , r v y 7 o.P f s b j 1 < # j 6 u 7 . u M 9 7 + . t r   # = > < p y 7 q ; % o 7 # 6 % + % + O 4 q f 2 O 8 7 q = 6 . e 8 x : ",
"u O X < M f 7 @.P L s   7 - r # 7 X > 7 @ # l + @ 7 6 t , > . & 2 9 p f T O x   6 o # . O X % O O 9 O s O X O I b = o   o ; x 2 ",
"@ + O j v f   O. .+.M o O 3 1 w X 6 X < t   y X   + > ,     < 2 %   8 M q q ; 9 O 2 #   + = 4 % o 9 O l 2 } C Q Z & X . q p & 2 ",
". 2 % u v f   O.P +.x # # . 3 3 % 6 9 @ j O p 7 e O + @   < . p & e : v O % s e + O 6   + & 4 % o 9 2 ; X n D U : x o . O s ; 8 ",
"+ u r : +.l > Q A v X t t . @ t 2 X O @ @ = . # + : o < j > 6 o . 4 M f % x s 9 + 9 X + b p % % o o 8 4 = c V E x Z b q X = 2 : ",
"i 3 g 3 v M o H L f T j t j   , = & & 7   9   . O p O t > # 5 S . < y v : ; & 9 9 9 + q 9 p p 8 O X % 2 & x n ; Z q Z 7 ! o O o ",
"g 9 # N r +.y % q U n I w w , 7 : 8 & 6 7 + Z 9 H / t @ > k | 2 % # @ M f Z & Z q q e 9 q x p 8 % q = n c ; E q G G b ` S x 8 = ",
"> 1 3 9 d X +.s X S J G b S @ b p p x 6 b G ; T n H 7 O g ! 8 9 . % 4 9 +.s G A E % q 9 q ; ; 8 4 = E c J / H } q T ! w s % O & ",
"3 1 $ b + @ s v : q H G n n 6 b : = : o 2 P c W K m U $ h X 4 7 b O & X 2 +.p m J G = Z O x 8 8 % x A B B K B } ] ] N O 8 q : = ",
"  e T I : 8 E +.s T Q V K } b q T Z X b T { C ) P J U ] 9 s X 2 % Z = s 2 v l K c H m } U 2 x & % : H C B Y D @.&.&.S l 8 s x p ",
"O = H n H / l A K B V ) c X.L A P A U H @.Y D )  .c K J  .E U E G J U E / m V V ~ ) J m L y G G W W ( $.$.C Y o.~ C L x U E x y ",
"V c B V A J J C ~ ) ~ c L / c  .J m ) { o.&.C J C C A  .J m m c V J ~ C C C D D ~ K m m P Q o.Y D B %.5 i I o.m L  .f L ) ~ c n ",
"C V D m J ~ ~ C @._ c V K K m L A J n ~ Y ~ c ~ D m X.J V V n U m B o.Y m G K D V V K B C O.{ V { Y o.o.{ ] _ A J P m n K D ~ Y ",
"C V ) ~ C D o.k i 4 v m A P P c S S q _ { ) m c ) m w k $.n H U b _ C $.j @   T n B m _ { B W _ W Y C ~ D ~ ( H K { n _ B { D &.",
"D c D ) ) %.k z + M v v X.E H _ Q W Q @.O.@.K K B ` k [ : +.v 8 q q n ` - - , O = / A n C D W n Q n K @.D m m B { W { $.( B Y Y ",
"D A A H i 5 a | - v v c m c H W Q Q @.o.Y D c V c j 0 r l c H : 9 G ( a 5 - i = y v  .V ~ D m  .{ n c O.{ V B @.V B O.O.D B @.O.",
"P P $.k d 0 %.b y +.A K D Y } 7 T _ ( @.C ) m A T a ( ( $.%.H : q G ` d 5 $ j x s s A m V o.J l K } q V Y C C o.m P V n B @.B @.",
"n O.| t ] %.} v +.U _ O.C Q e T 9 { V D ~ A X.A ] $ d * d w : 2 9 2 w j ] a = X.&  ./ / K D L / W n G n B Y ~ K L = ( { { @.B { ",
"` 3 @ I @ ! f f } W | %.} H e Z t j H B ~ A H ( ( B W Q ] b = % > O % } W _ G / p / H T W n W { } % e 7 e ( _ B n q I I W W n Q ",
"7 7 I w | q ; T H 8 , 6 y @ O % w   q Q W I ] 7 O I n ) _ e 7 = O < O ; } n / x U E U G Z X I K e % o S + E = 9 7 q U w > X q U "
};
