/* XPM */
static char * lava4_xpm[] = {
"16 16 9 1",
" 	c #BE4A2F",
".	c #F77622",
"+	c #A22633",
"@	c #FEE761",
"#	c #3E2731",
"$	c #181425",
"%	c #FEAE34",
"&	c #3D3043",
"*	c #23243B",
"  .+ .@.#..$.@+ ",
"# .+ %@%&.% %@. ",
"#.% .%@%+%%.%@%.",
"$%%%.@$@+%@%@$@.",
" %@%%@ $+@$%$ @%",
"+@@%%$ +#@#@& $%",
"+@#@@*. $$#@ .*@",
"#%$&.#..%$#...#.",
"## #*+%.@%$$.%+*",
"$+.$# %%@%$ %% #",
"+ .+&.@% @+.%@.&",
" .%+#.@.+.+..@.#",
" %@%%@ $#@+%$ @%",
"+@@%%$ &#@#@& $%",
"+@#@@*. $$#@ .*@",
"#%$&.#%.+$#..%#."};
