/* XPM */
static char * lava2_xpm[] = {
"16 16 11 1",
" 	c #212137",
".	c #181425",
"+	c #3E2731",
"@	c #3F4864",
"#	c #262B44",
"$	c #814223",
"%	c #2E1F2C",
"&	c #BE4A2F",
"*	c #F77622",
"=	c #2C3048",
"-	c #3E3649",
" .+@. ## .+@. ##",
"+.#. #..+.$. #..",
"@+. +.@.@+. +.@.",
".@%#$+  .@%#$+  ",
" .+&* #+ .+@* #+",
"+.#. #.++.#. #.+",
"#+. @. .#+. @. .",
".+%@.+  .+%@.+  ",
"@=#.+-.#&.+@+-.#",
"# .+@. #*.#.@. #",
".+.#. #.@+. . #.",
".@+. +.@.@%# $.@",
"&.#. #.++.#. #.+",
"*$. @. .#+. @. .",
".+%@.+$ .+%@.+  ",
"..# .#.+..# .#.+"};
