/* XPM */
static char * Untitled3_xpm[] = {
"16 16 5 1",
" 	c #455272",
".	c #3A4466",
"+	c #262B44",
"@	c #333C5A",
"#	c #1E1F34",
"  .+.+++. .+@@..",
"@@ #+@+@+@.#+@@.",
"@@.#+++@@@.#@@.@",
"++#######++#++++",
"+.+..  .+@..@. .",
"+.@@@@@ #+@@@@. ",
"#@.@@+..#.@@+@@.",
"#++##+++#++###++",
"  .++..   .+@.  ",
"@. #++@+@. +.@.@",
"@@.#+.+@@@.#@+@.",
"++####++######++",
"+@.@.  .+@+..  .",
"#+@.@.@ ++@@@.@ ",
"#.+@+@..#@@+@...",
"#####+++#++##+++"};
