/* XPM */
static char * rock4_xpm[] = {
"16 16 3 1",
" 	c #262B44",
".	c #181425",
"+	c #3A4466",
"  .      .+     ",
"++++     .+    +",
"    .+++++++++.+",
"    .+        .+",
".....         ..",
" .+++++++++.++++",
" .+        .+   ",
" .         .    ",
"+++.  +++++++ ++",
"   .  +      .  ",
"   .         .  ",
"..+++++++++.....",
"+++        .++++",
"  +        .    ",
"  ..........    ",
"  .++++  .++++++"};
