/* XPM */
static char *result[] = {
/* columns rows colors chars-per-pixel */
"64 64 36 1 ",
"  c #73716B",
". c #50504C",
"X c #6F6D67",
"o c #565550",
"O c #5F5E59",
"+ c #6B6963",
"@ c #5B5A55",
"# c #676560",
"$ c #76756E",
"% c #7D7B74",
"& c #85837B",
"* c #7A7871",
"= c #63625C",
"- c #292927",
"; c #4B4B48",
": c #7F7E76",
"> c #939187",
", c #88867E",
"< c #1E2020",
"1 c #474642",
"2 c #8B8981",
"3 c #8F8D84",
"4 c #97958C",
"5 c #41413D",
"6 c #818078",
"7 c #9D9A91",
"8 c #A29F95",
"9 c #32322F",
"0 c #3A3A38",
"q c #111214",
"w c #4C595E",
"e c #A9A69C",
"r c #576468",
"t c #B3B0A7",
"y c #C5C2B9",
"u c #717E82",
/* pixels */
"*3:*%% .@>4$%777742344>,332#@4X9;X> 1**$$**$ +X  XXO@##55@..;110",
"ett X>oO,et$ e888734744%%>>XO3X1@X,X.%*X#** X#XXX++.;++.11@5;19.",
"7t&-9=>&3-00999999999999-----.oo@@;9<--------------<<<<.OO0<<1.w",
"e%--#O=3oqq<<-<-<<<<<<<<<<<qq$*o.= qqqqqqqqqqqqqqqqqqqq*+.q-91.w",
"e&00% $3rq1@@o@@oo.oo11;...1o33OO 6<-555510000050055091>#.<95..w",
"t,>#$37$Oq$:O$:%*%*$$X+X#OXX 2  *+$-5+@o=#O@@@@o@@o;.o.3@o15;O@w",
"#.2%# 6>@@7$#2>>322&&&6&O#:*2, ** $% $=.X XXX+#++##.o#OX;5.15;00",
"2$X*% 83=O>44266& +*%%$X %$#$  oo$##O#+O=+###o.O@O=++=..@o5;1555",
"yt&tt7$@#X6@=23>32,222&$*&&**@1+%.;=X$ #+     XX+#=;5oo.1OO##..O",
"yytett>0=,6-54e88>2744>23>3,3 5 %;@2::%$*$**%$ $ X#9-o#;9+X+#@ow",
"yyt,:33@##6X$,22&&&,&6% $:% %+.X @@ X+X###++++##==@o.@.;; =oo@@w",
"yy$qq<&8>#373X>:&>>2,3&2# *X+X +#X+@++#o **$X X+O+oO#=o#++<q<oOr",
"78.q<@>e868e3&e88e:@O+#Oo@$X++OO=oO#+Xo1o@Oo.@:$$*O= XOXXwqq9&o1",
"O=rq9 8872e843e87e+.@o.o@=$  X+++XX+++o1.;....6$$$=+*$O#+r<<.69-",
"3$X<0 8876ee4&e8476+X$++#+$ $ +++XX++#@.O##=@+6***#+*Xo+#r<-@405",
"&* <5$884:te428743&% 66:$=++##===+#@@=@#$  #+#+%*%#+*$@++r<-=490",
"o$u<0X876&>7e877>23>>474422%+3266>2X$266::* %=o%%*$$ =O++r<-#40-",
"yt <0#87&:64e844>%>788887,$X6>>22>26,2,,&&&6%$+:%%**X@O#+r-9#2.w",
"ye+<0#774&e888746$87888772*$&3>2,>3222,,&&&6:%X$*%**$$=##r-9#,.w",
"ye+<5$7842e88887&:87787743362>>,,>22222,&&6666X+ *  $ =+Xr-9#,.w",
"ye+<0X7842e848888%4778774>>3>>>,,>2322,,&6666&X%*    $O+Xr--=,or",
"yer<0#484,e7888e4X377777444>>>>&%>222,,,&&6:%%X*$$ $ $O+Xr--=,or",
"yer<0+>77 ,e888e3=277777444>>>3&:322,,,&&&6%X+#*$ X $+@+Xr--=2or",
"y7r<9X>44,e888882+>7774444>>>>3,,3222,&&&&:*+O@XX+X $ #XXr--O,.w",
"y8rq5:33,,e88877767774444>>>>>36:3,2,&&&&66 Ooo#=O=X*$==#r-0O,or",
"y8r<9#>>,2te88e88677744444>>>>>:$2,,,&&&&6:$#O@#O@OX%%OO=r<-O&or",
"y8r<9=>742>,:%,,>%77444444>>>336*,,,,,&&6:** XO+@@@O##=+Xr<-O&.r",
"t3rq-#>4>,#@OO#O&67774444>>>3336:2,,,&&&66&%*$#X..;;;.+#+r<-=,;w",
"t7Oq0*34>2 O==+O3672&3444>>3323&62,,&&&&&&&6:%X ;.;;.o++Xr-0@*.r",
"t3@q;>&&::>>>>334%7,,34>>>333326%2,&&&&&&66:*%  XX  XX=##w-5o%;w",
"e$O<@>6=O;6:6362=O2 6444>33336,6%,6&,&&&66:*O$O;+###rO5.ow95O35w",
",$.047$$$@X266&%;O%:3744>>332 :::,:,,&&&&66$O#o;@$##+;;O=.1O@$51",
"+ .9X*O, =O34>>@o >2>3222,,&6,$ :,&&6:%%%$$$ $=1;   +1;OO50.;o55",
"X O-X%=&$#=274>OO 4>>,%,2222&,&*:,666:::%***  @1.$ $X;;Or15..#15",
"& O9:3$$+=+2,,2$oX2>>6+62332&%,%%&*%66:::%%*$=.1@$+#+11@@.1o@%1;",
">Xrq-OX+#.*  $ *=+>33$+%2222&:*$*6%::%%%%%%*$ @;#O@o.o1.@w<<5:0w",
"&%rq5,*6*X222,,&6$332**&222,&6$X$6%%%%%%%**$  =++X++X+O#=w-1.:5;",
"4*wq-X:&&%>333332$32,,622,,&6%$ $6%%%%%%**$$$XO$XX++XXO#+w<9@:5w",
"e&wq<;6&:*>232222$2&&2&,,&&6:::$=XX*%%%%**$ X =X+=O+XX=##w<<@6.r",
"e&wq-o&&:$32,&,,2 26&,,&&66:::6*++X%%%****$ X$=X#OOXXX=##w<-@6.r",
"8:.q-o6,:$32*$,,:X2,,&&&:66::%: #X %**$$$$    #++ =OXXO#+w<-@:.r",
"7%.q<;*%%+6&$*6&$X,&&&&6::::::$=O#X*$*$ $$    =+X #=+#o##w<-@%.w",
"4*.q<1 X*+::::%%%+&:66:::6%%%%%+O+ $$$  $$    =X XX++=o#Ow<-@%.@",
"4%oq<;*:$ &::%   =6%:::%:%%%%%*X=XX $$      X =XXXX++XO==w<-o*;@",
"4:oq<;%* o:::%$X==6%%:%$ ***%**#+ X$$       X =XXXXX+#@==w<-o*;w",
">%wq<1$X.O:%%%*#oO6%%%:X=$$$**%  $$$$ $  X  XXO+X+++++O==w<-.$;w",
",%oq<1 =@X6%%%*+oO6*%%% X***XX +X$$$    XXXXX+@+XXXXXXOo@w<-.$;;",
";.wq<1 % +:*$X XOO:****  **$ooo@#X+     XXXX++O+XX##++O@O.<-.%99",
"..@q<1 X=+@.o;;;##:$*%%%%%%X011.o;.oX   ++++++O=...;1.@.@;<-.%90",
"@O@qq1$  #ooo..o+.+*X.o.@$*.0.;;.;o..X+;511= +.O..o.;o@@=;<<.*95",
"555q<.  XO+XX+   @1o;o@O@o@oo@@O==O@.o;;oo@..1;#=#=#=Oo@O.<-1O9-",
"O#oq9 %++O +##$$  +#XX+@.oo@.oo@@@Oooo.5.=++==#=##O=OO.@O.q9@310",
"2*#.O2:#=@#@oO  XXXXXX+05oo.o@oooooo...00=##++####o.oOo@@O;.33;@",
"%XX %*=.;;OOO=+++##=###@o@o@Oo.....oooo;.==O=OO@@@.;..;..@=#=;;;",
"$+=#==o0;1O==oO@@OOO=O@@OOO@@o.@=o.oo@@ooooooo........5;0...;1;;",
"%+o++O.0;o@-9O++##=+++#O#+#O+o0o#01#==#=OO==#Oo=OOo9-..10..oo1;.",
".oo.oo;OooO0;=#==####==O##=oO@.o@oo=@===OOOOOO@@@o.00..o@;515109",
"@=X;.@0@@0@o;.o.o......;55;;.O@O#=Oo1;;5;..;..;;;;;51o1@o;105;95",
"=@5<-5o.1q<--99999-99999----<;111;o<q<-----99---------q.;1-<<01;",
"O;<<501@0q<--------------9--9@O11.@qq<<<--<-<-<-<----<9 .0q<-055",
"O;-<05;@5q.Oo@OO@@@o@@@@o..;.O;551o<91;....;;;;.;;1111.%.0<<9150",
"O5.;.=o;OO* +XX   X+XXX=#X+O@=..@@@@o##=O==O=O====OOO=#=55551.00",
".9150o9-0@@51@ooooooooo.@@@59O1951@;9oo.;...;;o....50.;9-91005-9",
"9555500<-1155111111111111119-;0--0;5-111555555555550555-<000099<"
};
