/* XPM */
static char * wood1_xpm[] = {
"16 16 6 1",
" 	c #B86F50",
".	c #733E39",
"+	c #E8B796",
"@	c #BB7352",
"#	c #B97151",
"$	c #E4A672",
"   .   .   .   .",
"+++@+++@+++#+++ ",
"$$+@+$$@$$+@$$$ ",
"$$+@+$$@$$+@$$+ ",
"$$+@$$$@$$$@$$+ ",
"$$+@$$$#$$$#$$+ ",
"$$+@$$$#$$$#$$+ ",
"$$+@$$$ $+$#$$+ ",
"$++@$$$ $+$ $$+ ",
"$++@+$$ $$$ $$+ ",
"$$+@+$$ $$$ $$+ ",
"+$+@$$$ $$$ $$$ ",
"+$$@$$$ $$$#$$$ ",
"$$$@$++@+$$#$$$ ",
"$$$@$++@+$+#$++ ",
"+$$@+++#+++#+++ "};
