/* XPM */
static char * wood3_xpm[] = {
"16 16 6 1",
" 	c #733E39",
".	c #E4A570",
"+	c #C28569",
"@	c #E6B377",
"#	c #D28967",
"$	c #B86F50",
" .+..@#...#@.+..",
"$.+..@#...#@.+..",
"$.+..@#...+@.+..",
"$.#..@+...+@.+.+",
"$.#..@+...+@.+..",
"$.+..@+...#@.+..",
"$.+..@+..@#@.+..",
"$.+..@+..@#@.+..",
"$.#..@+...+@.+@.",
"$.#..@#..+@..+@.",
"$..+@+..+@...#@.",
"$...#..+@...+@..",
"$@....+@....+@..",
"$+@..@#@...+@...",
"$.+..@#...+@...+",
"$.+..@#...+...+@"};
