/* XPM */
static char * wood2_xpm[] = {
"16 16 5 1",
" 	c #733E39",
".	c #BE4A2F",
"+	c #AE3631",
"@	c #C95D38",
"#	c #B9493A",
" ..+ @@# @@@    ",
" @.+ @@# +.@ @#@",
" @@# @.+ +.. @#@",
"     @.+ .+. .+.",
" @@# @.+ .+. .+.",
" @.+ ..+ ..+ @+.",
" @.. ..+ ..+ @.+",
" .+. ..+ ..+ ...",
" .+. ..+ ..+ +..",
" ..+ .+. ..+ .+.",
" ..+ .+. @.+ .+.",
" ..+ .+. @@# .+.",
" ... @..     ...",
" .+. @@# +.. +..",
" @+. @@# +.. +..",
" @+.     +.. #@@"};
