/* XPM */
static char * wood4_xpm[] = {
"16 16 7 1",
" 	c #57402B",
".	c #695433",
"+	c #462D16",
"@	c #634721",
"#	c #4E3419",
"$	c #3C2913",
"%	c #48351A",
" .+.@@#@@ $.@#@ ",
"@.# @@#@@ $. #@ ",
"@.$ @@#@  #@ $@@",
"@@$.@ @# @#@ $@@",
"@@#.@ @# @ %  #@",
"@@+ @%@# @.$@ #@",
"@+  @%@$ @.$@ $@",
"@# .@$@$ @ #@ $ ",
"@$ .@$@%@@ #@ @#",
"@$.@$ @ @@ #@ @#",
"@+.@#@@  @  #.@@",
"+@ @#@@  @. #.@@",
"+@  #@@# @. $ .@",
"+@ # #@$@ @ $ .@",
"@@ #@#.$@ @.# @@",
"@@@#@#.+@ @.# @@"};
